<svg id="Olekoo-Logo" xmlns="http://www.w3.org/2000/svg" width="260" height="36.101" viewBox="0 0 260 36.101">
  <g id="Layer_1" data-name="Layer 1">
    <path id="Path_207" data-name="Path 207" d="M23.476,30.758v5.29H0V.09H23.476Z" transform="translate(0 -0.044)" fill="#7f391b"/>
    <path id="Path_208" data-name="Path 208" d="M45.91,18.028,77.13,0V36.05Z" transform="translate(-22.444)" fill="#037f79"/>
    <circle id="Ellipse_71" data-name="Ellipse 71" cx="18.043" cy="18.043" r="18.043" transform="translate(5.392 0.015)" fill="#f15200"/>
    <path id="Path_209" data-name="Path 209" d="M146.836,36.078a17.276,17.276,0,0,1-8.883-2.223A15.809,15.809,0,0,1,132,27.685a18.748,18.748,0,0,1-2.157-9.124A18.733,18.733,0,0,1,132,9.438a15.774,15.774,0,0,1,5.95-6.169,18.758,18.758,0,0,1,17.736,0,15.543,15.543,0,0,1,5.955,6.169,18.912,18.912,0,0,1,2.131,9.124,18.912,18.912,0,0,1-2.131,9.124,15.574,15.574,0,0,1-5.955,6.169A17.281,17.281,0,0,1,146.836,36.078Zm0-5.566a9.883,9.883,0,0,0,7.718-3.189q2.878-3.189,2.878-8.761T154.554,9.8a10.952,10.952,0,0,0-15.462,0q-2.9,3.195-2.9,8.761t2.9,8.761a9.939,9.939,0,0,0,7.744,3.189Z" transform="translate(-63.476 -0.508)"/>
    <path id="Path_210" data-name="Path 210" d="M206.92,36.058V2.18h6.174V31.222h15v4.84Z" transform="translate(-101.157 -1.066)"/>
    <path id="Path_211" data-name="Path 211" d="M259.09,36.058V2.18h22.117V7.164H265.285v9.292h14.47V21.3h-14.47v9.773h15.922v4.989Z" transform="translate(-126.662 -1.066)"/>
    <path id="Path_212" data-name="Path 212" d="M313.82,36.058V2.18h6.195V15.888L332.548,2.18h7.667l-12.5,13.453,12.824,20.445h-7.6l-9.681-15.7-3.241,3.532v12.15Z" transform="translate(-153.418 -1.066)"/>
    <path id="Path_213" data-name="Path 213" d="M384.391,36.078a17.246,17.246,0,0,1-8.878-2.223,15.784,15.784,0,0,1-5.955-6.169,18.743,18.743,0,0,1-2.152-9.124,18.733,18.733,0,0,1,2.152-9.124,15.748,15.748,0,0,1,5.955-6.169,18.758,18.758,0,0,1,17.736,0,15.564,15.564,0,0,1,5.95,6.169,18.912,18.912,0,0,1,2.131,9.124,18.912,18.912,0,0,1-2.131,9.124,15.6,15.6,0,0,1-5.934,6.169,17.312,17.312,0,0,1-8.873,2.223Zm0-5.566a9.883,9.883,0,0,0,7.718-3.189q2.878-3.189,2.883-8.761T392.109,9.8a10.952,10.952,0,0,0-15.462,0q-2.9,3.195-2.9,8.761t2.9,8.761a9.939,9.939,0,0,0,7.744,3.189Z" transform="translate(-179.612 -0.508)"/>
    <path id="Path_214" data-name="Path 214" d="M459.281,36.078a17.245,17.245,0,0,1-8.878-2.223,15.783,15.783,0,0,1-5.955-6.169,18.743,18.743,0,0,1-2.152-9.124,18.733,18.733,0,0,1,2.152-9.124A15.748,15.748,0,0,1,450.4,3.268a18.759,18.759,0,0,1,17.736,0,15.579,15.579,0,0,1,5.955,6.169,18.953,18.953,0,0,1,2.126,9.124,18.968,18.968,0,0,1-2.126,9.124,15.61,15.61,0,0,1-5.955,6.169A17.3,17.3,0,0,1,459.281,36.078Zm0-5.566A9.883,9.883,0,0,0,467,27.322q2.878-3.189,2.883-8.761T467,9.8a10.952,10.952,0,0,0-15.462,0q-2.908,3.195-2.9,8.761t2.9,8.761a9.939,9.939,0,0,0,7.744,3.189Z" transform="translate(-216.224 -0.508)"/>
  </g>
</svg>
